<svg width="354" height="107" viewBox="0 0 354 107" fill="none" xmlns="http://www.w3.org/2000/svg">
<path d="M62.4443 106.4C51.3865 106.4 41.3341 102.152 34.0074 94.8276C26.5532 87.3763 21.9203 76.7419 21.9203 64.1603C21.9203 39.7403 39.6083 21.9203 62.4443 21.9203C73.6029 21.9203 83.5323 26.2382 90.7694 33.4725C98.3431 41.0432 102.968 51.8079 102.968 64.1603C102.968 87.7883 85.6763 106.4 62.4443 106.4ZM58.4068 74.801C59.6047 75.9994 60.9934 76.7003 62.4443 76.7003C66.6683 76.7003 70.2323 70.8923 70.2323 63.8963C70.2323 59.259 68.6664 55.0857 66.3803 52.7987C65.2175 51.6355 63.8684 50.9603 62.4443 50.9603C58.2203 50.9603 54.5243 57.0323 54.5243 63.8963C54.5243 68.4025 56.1172 72.5105 58.4068 74.801Z" fill="#06304B"/>
<path d="M130.429 106.4C118.976 106.4 109.366 103.234 102.726 96.5965C96.4343 90.307 92.8094 80.9011 92.8094 68.1203V24.5603H125.149V65.8763C125.149 70.9305 126.106 73.8702 127.615 75.3795C128.549 76.3142 129.695 76.7003 130.957 76.7003C134.785 76.7003 136.897 74.1923 136.897 65.8763V24.5603H169.369V68.1203C169.369 93.0683 156.301 106.4 130.429 106.4Z" fill="#06304B"/>
<path d="M178.366 103.76V54.9203H158.17V24.5603H230.902V54.9203H210.706V103.76H178.366Z" fill="#06304B"/>
<path d="M238.519 103.76V54.9203H218.323V24.5603H291.055V54.9203H270.859V103.76H238.519Z" fill="#06304B"/>
<path d="M262.734 103.76L290.454 24.5603H325.698L353.55 103.76H319.362L317.25 95.8403H299.034L296.922 103.76H262.734ZM304.446 74.7203H311.838C310.65 69.0443 309.594 62.7083 308.406 51.8843H307.746C306.69 62.7083 305.634 69.0443 304.446 74.7203Z" fill="#06304B"/>
<path d="M40.524 0C17.688 0 0 17.82 0 42.24L21.9203 64.1603C21.9203 39.7403 39.6083 21.9203 62.4443 21.9203L40.524 0Z" fill="#06304B"/>
<path d="M68.849 11.5522C61.6119 4.31789 51.6825 0 40.5239 0L62.4442 21.9203C73.6028 21.9203 83.5322 26.2382 90.7694 33.4725L68.849 11.5522Z" fill="#06304B"/>
<path d="M0 42.24C0 54.8216 4.63289 65.456 12.0871 72.9073L33.9967 94.817C26.5488 87.3662 21.9203 76.7359 21.9203 64.1603L0 42.24Z" fill="#06304B"/>
<path d="M32.604 41.976C32.604 35.112 36.3 29.04 40.524 29.04L62.4443 50.9604C58.2203 50.9604 54.5243 57.0323 54.5243 63.8963L32.604 41.976Z" fill="#06304B"/>
<path d="M40.5239 29.04C41.9481 29.04 43.2972 29.7152 44.46 30.8785L66.3779 52.7965C65.2157 51.6347 63.8674 50.9604 62.4442 50.9604L40.5239 29.04Z" fill="#06304B"/>
<path d="M36.4865 52.8808C34.197 50.5903 32.604 46.4823 32.604 41.9761L54.5243 63.8964C54.5243 68.4026 56.1173 72.5106 58.4068 74.8011L36.4865 52.8808Z" fill="#06304B"/>
<path d="M44.46 30.8784C46.746 33.1654 48.3119 37.3387 48.3119 41.976L70.2322 63.8963C70.2322 59.259 68.6663 55.0857 66.3803 52.7987L44.46 30.8784Z" fill="#06304B"/>
<path d="M103.229 2.64001H70.8892L92.8095 24.5603H125.149L103.229 2.64001Z" fill="#06304B"/>
<path d="M40.524 54.7799C39.0741 54.7799 37.6864 54.0801 36.489 52.8832L58.4068 74.8009C59.6047 75.9994 60.9933 76.7002 62.4443 76.7002L40.524 54.7799Z" fill="#06304B"/>
<path d="M48.3119 41.976C48.3119 48.972 44.7479 54.78 40.5239 54.78L62.4442 76.7003C66.6682 76.7003 70.2322 70.8923 70.2322 63.8963L48.3119 41.976Z" fill="#06304B"/>
<path d="M70.8892 2.64001V46.2L92.8095 68.1203V24.5603L70.8892 2.64001Z" fill="#06304B"/>
<path d="M81.048 42.2399C81.048 29.8934 76.4272 19.1332 68.86 11.563L90.7694 33.4724C98.3431 41.0431 102.968 51.8078 102.968 64.1602L81.048 42.2399Z" fill="#06304B"/>
<path d="M12.087 72.9072C19.4138 80.2311 29.4661 84.4799 40.5239 84.4799L62.4443 106.4C51.3865 106.4 41.3341 102.151 34.0073 94.8275L12.087 72.9072Z" fill="#06304B"/>
<path d="M40.5239 84.48C63.7559 84.48 81.0479 65.868 81.0479 42.24L102.968 64.1603C102.968 87.7883 85.6762 106.4 62.4442 106.4L40.5239 84.48Z" fill="#06304B"/>
<path d="M103.229 43.956V2.64001L125.149 24.5603V65.8763L103.229 43.956Z" fill="#06304B"/>
<path d="M147.449 2.64001H114.977L136.897 24.5603H169.369L147.449 2.64001Z" fill="#06304B"/>
<path d="M70.8892 46.2C70.8892 58.9808 74.5141 68.3867 80.806 74.6762L102.718 96.5886C96.4313 90.2991 92.8095 80.8957 92.8095 68.1203L70.8892 46.2Z" fill="#06304B"/>
<path d="M114.977 2.64001V43.956L136.897 65.8763V24.5603L114.977 2.64001Z" fill="#06304B"/>
<path d="M105.695 53.4592C104.186 51.9499 103.229 49.0101 103.229 43.9559L125.149 65.8762C125.149 70.9304 126.106 73.8702 127.615 75.3795L105.695 53.4592Z" fill="#06304B"/>
<path d="M136.25 2.64001V33L158.17 54.9203V24.5603L136.25 2.64001Z" fill="#06304B"/>
<path d="M114.977 43.9559C114.977 52.2719 112.865 54.7799 109.037 54.7799L130.957 76.7002C134.785 76.7002 136.897 74.1922 136.897 65.8762L114.977 43.9559Z" fill="#06304B"/>
<path d="M109.037 54.78C107.776 54.78 106.63 54.3941 105.696 53.4602L127.615 75.3795C128.549 76.3142 129.695 76.7003 130.957 76.7003L109.037 54.78Z" fill="#06304B"/>
<path d="M147.449 46.2V2.64001L169.369 24.5603V68.1203L147.449 46.2Z" fill="#06304B"/>
<path d="M80.8059 74.6761C87.4456 81.3132 97.0552 84.4799 108.509 84.4799L130.429 106.4C118.975 106.4 109.366 103.234 102.726 96.5965L80.8059 74.6761Z" fill="#06304B"/>
<path d="M208.982 2.64001H136.25L158.17 24.5603H230.902L208.982 2.64001Z" fill="#06304B"/>
<path d="M136.25 33H156.446L178.366 54.9203H158.17L136.25 33Z" fill="#06304B"/>
<path d="M108.509 84.48C134.381 84.48 147.449 71.148 147.449 46.2L169.369 68.1203C169.369 93.0683 156.301 106.4 130.429 106.4L108.509 84.48Z" fill="#06304B"/>
<path d="M156.446 33V81.84L178.366 103.76V54.9203L156.446 33Z" fill="#06304B"/>
<path d="M196.403 2.64001V33L218.323 54.9203V24.5603L196.403 2.64001Z" fill="#06304B"/>
<path d="M208.982 33V2.64001L230.902 24.5603V54.9203L208.982 33Z" fill="#06304B"/>
<path d="M188.786 33H208.982L230.902 54.9203H210.706L188.786 33Z" fill="#06304B"/>
<path d="M269.135 2.64001H196.403L218.323 24.5603H291.055L269.135 2.64001Z" fill="#06304B"/>
<path d="M196.403 33H216.599L238.519 54.9203H218.323L196.403 33Z" fill="#06304B"/>
<path d="M188.786 81.84V33L210.706 54.9203V103.76L188.786 81.84Z" fill="#06304B"/>
<path d="M156.446 81.84H188.786L210.706 103.76H178.366L156.446 81.84Z" fill="#06304B"/>
<path d="M216.599 33V81.84L238.519 103.76V54.9203L216.599 33Z" fill="#06304B"/>
<path d="M269.135 33V2.64001L291.055 24.5603V54.9203L269.135 33Z" fill="#06304B"/>
<path d="M303.777 2.64001H268.533L290.454 24.5603H325.698L303.777 2.64001Z" fill="#06304B"/>
<path d="M248.939 33H269.135L291.055 54.9203H270.859L248.939 33Z" fill="#06304B"/>
<path d="M268.533 2.64001L240.813 81.84L262.734 103.76L290.454 24.5603L268.533 2.64001Z" fill="#06304B"/>
<path d="M248.939 81.84V33L270.859 54.9203V103.76L248.939 81.84Z" fill="#06304B"/>
<path d="M216.599 81.84H248.939L270.859 103.76H238.519L216.599 81.84Z" fill="#06304B"/>
<path d="M285.825 29.964H286.485L308.406 51.8843H307.746L285.825 29.964Z" fill="#06304B"/>
<path d="M282.525 52.8C283.713 47.124 284.769 40.788 285.825 29.964L307.746 51.8843C306.69 62.7083 305.634 69.0443 304.446 74.7203L282.525 52.8Z" fill="#06304B"/>
<path d="M286.485 29.964C287.673 40.788 288.729 47.124 289.917 52.8L311.838 74.7203C310.65 69.0443 309.594 62.7083 308.406 51.8843L286.485 29.964Z" fill="#06304B"/>
<path d="M289.917 52.7999H282.525L304.446 74.7202H311.838L289.917 52.7999Z" fill="#06304B"/>
<path d="M240.813 81.84H275.001L296.922 103.76H262.734L240.813 81.84Z" fill="#06304B"/>
<path d="M275.001 81.8399L277.113 73.9199L299.034 95.8402L296.922 103.76L275.001 81.8399Z" fill="#06304B"/>
<path d="M331.629 81.84L303.777 2.64001L325.698 24.5603L353.55 103.76L331.629 81.84Z" fill="#06304B"/>
<path d="M277.113 73.9199H295.329L317.25 95.8402H299.034L277.113 73.9199Z" fill="#06304B"/>
<path d="M295.329 73.9199L297.441 81.8399L319.362 103.76L317.25 95.8402L295.329 73.9199Z" fill="#06304B"/>
<path d="M297.441 81.84H331.629L353.55 103.76H319.362L297.441 81.84Z" fill="#06304B"/>
<path d="M269.635 4.13995V31.5003H247.439V80.3401H218.099V31.5003H197.903V4.13995H269.635Z" fill="#FFF407" stroke="#06304B" stroke-width="3"/>
<path d="M217.892 4.13995L208.723 31.2903L188.77 31.5003L187.286 31.5159V80.3401H157.946V31.5003H137.75V4.13995H217.892Z" fill="#FD9BFF" stroke="#06304B" stroke-width="3"/>
<path d="M101.729 4.13995V43.9564C101.729 48.1516 102.363 51.1908 103.62 53.2249C104.951 55.3811 106.905 56.2796 109.038 56.2796C110.154 56.2796 111.247 56.0973 112.247 55.6019C113.261 55.0987 114.09 54.3169 114.727 53.262C115.956 51.2275 116.477 48.1703 116.477 43.9564V4.13995H145.949V46.1995C145.949 58.4246 142.75 67.5523 136.624 73.6312C130.497 79.7117 121.202 82.9798 108.509 82.9798C97.6115 82.9798 88.6235 80.0476 82.3667 74.1028C76.1239 68.1714 72.3891 59.0398 72.3891 46.1995V4.13995H101.729Z" fill="#FF7E08" stroke="#06304B" stroke-width="3"/>
<path d="M302.715 4.13989L329.513 80.3401H298.594L296.779 73.5334L296.481 72.4202H275.961L275.664 73.5334L273.849 80.3401H242.928L269.598 4.13989H302.715ZM284.333 29.8186C283.281 40.5953 282.233 46.8767 281.057 52.4924L280.679 54.3H291.764L291.386 52.4924C290.21 46.8735 289.16 40.5866 287.976 29.8L287.83 28.4641H284.465L284.333 29.8186Z" fill="#35CB75" stroke="#06304B" stroke-width="3"/>
<path d="M40.5244 1.5C62.4819 1.50022 79.5479 18.862 79.5479 42.2402C79.5477 65.1128 62.8563 82.9802 40.5244 82.9805C19.0638 82.9805 1.50011 66.3787 1.5 42.2402C1.5 18.6041 18.5607 1.5 40.5244 1.5ZM40.5244 27.54C37.6585 27.54 35.2771 29.5712 33.7002 32.1514C32.092 34.783 31.1036 38.2925 31.1035 41.9756C31.1035 45.6597 32.0924 49.1398 33.7051 51.7422C35.2897 54.2991 37.6726 56.2803 40.5244 56.2803C43.3718 56.2801 45.7238 54.3373 47.2822 51.7822C48.8633 49.1899 49.8115 45.711 49.8115 41.9756C49.8115 38.2409 48.8637 34.7329 47.2871 32.1113C45.7366 29.5333 43.3863 27.5402 40.5244 27.54Z" fill="#FFF407" stroke="#06304B" stroke-width="3"/>
<path d="M336.164 12V2.76H337.452V12H336.164ZM333.35 3.88V2.76H340.266V3.88H333.35ZM341.819 12V2.76H343.807L346.873 10.656H346.943L349.995 2.76H351.913V12H350.695L350.779 4.062H350.667L347.489 12H346.229L343.079 4.048H342.967L343.051 12H341.819Z" fill="black"/>
</svg>
