<svg width="376" height="119" viewBox="0 0 376 119" fill="none" xmlns="http://www.w3.org/2000/svg">
<path d="M74.6573 71.632C74.6573 79.2253 75.3719 84.7193 76.8013 88.114C77.5227 89.6842 78.5969 90.8814 80.0239 91.7057C81.6009 92.6166 83.6087 93.072 86.0473 93.072C90.7819 93.072 93.8639 91.4193 95.2933 88.114C96.7226 84.8087 97.4373 79.3147 97.4373 71.632C97.4373 63.86 96.7226 58.366 95.2933 55.15C94.6492 53.5612 93.6129 52.3543 92.1845 51.5292C90.6412 50.6377 88.6401 50.192 86.1813 50.192C81.4466 50.192 78.3199 51.8893 76.8013 55.284C75.3719 58.5893 74.6573 64.0387 74.6573 71.632ZM128.793 71.632C128.793 87.98 125.399 99.8613 118.609 107.276C111.82 114.601 100.966 118.264 86.0473 118.264C75.4747 118.264 66.9228 116.38 60.3915 112.611C57.7619 111.093 55.4598 109.27 53.4853 107.142C46.6959 99.7273 43.3013 87.8907 43.3013 71.632C43.3013 55.284 46.6959 43.4473 53.4853 36.122C60.2746 28.7073 71.1286 25 86.0473 25C96.6561 25 105.21 26.8747 111.708 30.6242C114.347 32.1474 116.648 33.98 118.609 36.122C125.399 43.4473 128.793 55.284 128.793 71.632Z" fill="black"/>
<path d="M150.759 26.742V85.568C150.759 88.1587 151.384 89.99 152.635 91.062C152.829 91.2176 153.042 91.3619 153.272 91.495C154.628 92.2783 156.604 92.67 159.201 92.67C162.238 92.67 164.382 92.134 165.633 91.062C166.883 89.99 167.509 88.1587 167.509 85.568V26.742H198.597V83.826C198.597 96.5113 195.425 105.445 189.083 110.626C182.74 115.718 172.735 118.264 159.067 118.264C147.475 118.264 138.52 116.441 132.201 112.795C131.118 112.17 130.113 111.492 129.185 110.76C122.842 105.757 119.671 96.958 119.671 84.362V26.742H150.759Z" fill="black"/>
<path d="M188.497 52.068V26.742H255.497V52.068H238.077V116.522H206.989V52.068H188.497Z" fill="black"/>
<path d="M243.243 52.068V26.742H310.243V52.068H292.823V116.522H261.735V52.068H243.243Z" fill="black"/>
<path d="M288.654 116.522L308.486 26.742H355.52L375.754 116.522H344.398L341.852 106.204H321.35L319.206 116.522H288.654ZM330.462 51.13L325.37 82.486H338.636L333.812 51.13H330.462Z" fill="black"/>
<path d="M10.184 11.1219C3.39467 18.4473 0 30.284 0 46.632L43.3013 71.632C43.3013 55.284 46.6959 43.4473 53.4853 36.1219L10.184 11.1219Z" fill="black"/>
<path d="M42.7461 0C27.8274 0 16.9734 3.70733 10.1841 11.122L53.4854 36.122C60.2747 28.7073 71.1287 25 86.0474 25L42.7461 0Z" fill="black"/>
<path d="M0 46.632C0 62.8906 3.39467 74.7273 10.184 82.142L53.4853 107.142C46.6959 99.7273 43.3013 87.8906 43.3013 71.632L0 46.632Z" fill="black"/>
<path d="M33.5 30.2839C35.0187 26.8892 38.1453 25.1919 42.88 25.1919L86.1813 50.1919C81.4466 50.1919 78.3199 51.8892 76.8013 55.2839L33.5 30.2839Z" fill="black"/>
<path d="M31.356 46.6319C31.356 39.0386 32.0706 33.5893 33.5 30.2839L76.8012 55.2839C75.3719 58.5893 74.6572 64.0386 74.6572 71.6319L31.356 46.6319Z" fill="black"/>
<path d="M68.4064 5.6242C61.9084 1.87473 53.355 0 42.7461 0L86.0474 25C96.6562 25 105.21 26.8747 111.708 30.6242L68.4064 5.6242Z" fill="black"/>
<path d="M42.8799 25.1919C45.3387 25.1919 47.3398 25.6376 48.8831 26.5291L92.1816 51.5275C90.6387 50.6371 88.6385 50.1919 86.1812 50.1919L42.8799 25.1919Z" fill="black"/>
<path d="M10.1841 82.142C12.1586 84.2704 14.4607 86.0933 17.0903 87.6107L60.3789 112.603C57.7546 111.087 55.4567 109.267 53.4854 107.142L10.1841 82.142Z" fill="black"/>
<path d="M33.5 63.114C32.0706 59.7193 31.356 54.2253 31.356 46.632L74.6572 71.632C74.6572 79.2253 75.3719 84.7193 76.8012 88.114L33.5 63.114Z" fill="black"/>
<path d="M48.8831 26.5291C50.3115 27.3542 51.3478 28.5611 51.9919 30.1499L95.2931 55.1499C94.649 53.5611 93.6128 52.3542 92.1843 51.5291L48.8831 26.5291Z" fill="black"/>
<path d="M36.7227 66.7057C35.2957 65.8814 34.2214 64.6842 33.5 63.114L76.8013 88.114C77.5227 89.6842 78.5969 90.8814 80.0239 91.7057L36.7227 66.7057Z" fill="black"/>
<path d="M51.9919 30.1499C53.4213 33.3659 54.1359 38.8599 54.1359 46.6319L97.4372 71.6319C97.4372 63.8599 96.7225 58.3659 95.2932 55.1499L51.9919 30.1499Z" fill="black"/>
<path d="M75.3079 11.1219C73.35 8.98367 71.054 7.15371 68.42 5.63208L111.708 30.6241C114.347 32.1473 116.648 33.9799 118.609 36.1219L75.3079 11.1219Z" fill="black"/>
<path d="M42.746 68.0719C40.3089 68.0719 38.3021 67.617 36.7255 66.7072L80.0239 91.7056C81.6009 92.6165 83.6087 93.0719 86.0473 93.0719L42.746 68.0719Z" fill="black"/>
<path d="M17.0903 87.6107C23.6216 91.3796 32.1735 93.264 42.7461 93.264L86.0473 118.264C75.4748 118.264 66.9229 116.38 60.3916 112.611L17.0903 87.6107Z" fill="black"/>
<path d="M54.1359 46.632C54.1359 54.3146 53.4213 59.8086 51.9919 63.114L95.2932 88.114C96.7225 84.8086 97.4372 79.3146 97.4372 71.632L54.1359 46.632Z" fill="black"/>
<path d="M51.9921 63.114C50.5628 66.4193 47.4808 68.072 42.7461 68.072L86.0474 93.072C90.782 93.072 93.864 91.4193 95.2934 88.114L51.9921 63.114Z" fill="black"/>
<path d="M107.458 1.74194H76.3696L119.671 26.7419H150.759L107.458 1.74194Z" fill="black"/>
<path d="M76.3696 1.74194V59.3619L119.671 84.3619V26.7419L76.3696 1.74194Z" fill="black"/>
<path d="M85.4919 46.632C85.4919 30.284 82.0972 18.4473 75.3079 11.1219L118.609 36.1219C125.398 43.4473 128.793 55.284 128.793 71.632L85.4919 46.632Z" fill="black"/>
<path d="M42.7461 93.264C57.6648 93.264 68.5188 89.6013 75.3081 82.276L118.609 107.276C111.82 114.601 100.966 118.264 86.0474 118.264L42.7461 93.264Z" fill="black"/>
<path d="M75.3079 82.276C82.0972 74.8613 85.4919 62.98 85.4919 46.632L128.793 71.632C128.793 87.98 125.398 99.8613 118.609 107.276L75.3079 82.276Z" fill="black"/>
<path d="M76.3696 59.3619C76.3696 71.9579 79.541 80.7573 85.8836 85.7599L129.185 110.76C122.842 105.757 119.671 96.9579 119.671 84.3619L76.3696 59.3619Z" fill="black"/>
<path d="M107.458 60.5679V1.74194L150.759 26.7419V85.5679L107.458 60.5679Z" fill="black"/>
<path d="M85.8835 85.76C86.8115 86.492 87.817 87.1704 88.8999 87.7952L132.189 112.788C131.111 112.165 130.109 111.489 129.185 110.76L85.8835 85.76Z" fill="black"/>
<path d="M155.296 1.74194H124.208L167.509 26.7419H198.597L155.296 1.74194Z" fill="black"/>
<path d="M124.208 1.74194V60.5679L167.509 85.5679V26.7419L124.208 1.74194Z" fill="black"/>
<path d="M109.334 66.062C108.083 64.99 107.458 63.1587 107.458 60.568L150.759 85.568C150.759 88.1587 151.384 89.99 152.635 91.062L109.334 66.062Z" fill="black"/>
<path d="M109.971 66.495C109.74 66.3619 109.528 66.2176 109.333 66.062L152.635 91.062C152.829 91.2176 153.042 91.3619 153.272 91.495L109.971 66.495Z" fill="black"/>
<path d="M115.899 67.6699C113.305 67.6699 111.329 67.2787 109.973 66.4962L153.272 91.4949C154.628 92.2782 156.604 92.6699 159.201 92.6699L115.899 67.6699Z" fill="black"/>
<path d="M145.195 1.74194V27.0679L188.497 52.0679V26.7419L145.195 1.74194Z" fill="black"/>
<path d="M88.8999 87.7952C95.2184 91.441 104.174 93.264 115.766 93.264L159.067 118.264C147.475 118.264 138.52 116.441 132.201 112.795L88.8999 87.7952Z" fill="black"/>
<path d="M122.331 66.062C121.081 67.134 118.937 67.67 115.899 67.67L159.201 92.67C162.238 92.67 164.382 92.134 165.633 91.062L122.331 66.062Z" fill="black"/>
<path d="M124.208 60.568C124.208 63.1587 123.582 64.99 122.332 66.062L165.633 91.062C166.883 89.99 167.509 88.1587 167.509 85.568L124.208 60.568Z" fill="black"/>
<path d="M145.195 27.068H163.687L206.989 52.068H188.497L145.195 27.068Z" fill="black"/>
<path d="M155.295 58.8259V1.74194L198.597 26.7419V83.8259L155.295 58.8259Z" fill="black"/>
<path d="M212.195 1.74194H145.195L188.497 26.7419H255.497L212.195 1.74194Z" fill="black"/>
<path d="M115.766 93.264C129.434 93.264 139.439 90.718 145.782 85.626L189.083 110.626C182.74 115.718 172.735 118.264 159.067 118.264L115.766 93.264Z" fill="black"/>
<path d="M145.781 85.6259C152.124 80.4446 155.295 71.5113 155.295 58.8259L198.597 83.8259C198.597 96.5113 195.425 105.445 189.083 110.626L145.781 85.6259Z" fill="black"/>
<path d="M163.687 27.068V91.522L206.989 116.522V52.068L163.687 27.068Z" fill="black"/>
<path d="M199.942 1.74194V27.0679L243.243 52.0679V26.7419L199.942 1.74194Z" fill="black"/>
<path d="M194.775 27.068H212.195L255.497 52.068H238.077L194.775 27.068Z" fill="black"/>
<path d="M212.195 27.0679V1.74194L255.497 26.7419V52.0679L212.195 27.0679Z" fill="black"/>
<path d="M199.942 27.068H218.434L261.735 52.068H243.243L199.942 27.068Z" fill="black"/>
<path d="M194.775 91.522V27.068L238.077 52.068V116.522L194.775 91.522Z" fill="black"/>
<path d="M163.687 91.522H194.775L238.077 116.522H206.989L163.687 91.522Z" fill="black"/>
<path d="M266.942 1.74194H199.942L243.243 26.7419H310.243L266.942 1.74194Z" fill="black"/>
<path d="M218.434 27.068V91.522L261.735 116.522V52.068L218.434 27.068Z" fill="black"/>
<path d="M249.521 27.068H266.941L310.243 52.068H292.823L249.521 27.068Z" fill="black"/>
<path d="M266.942 27.0679V1.74194L310.243 26.7419V52.0679L266.942 27.0679Z" fill="black"/>
<path d="M265.185 1.74194L245.353 91.5219L288.654 116.522L308.486 26.7419L265.185 1.74194Z" fill="black"/>
<path d="M249.521 91.522V27.068L292.823 52.068V116.522L249.521 91.522Z" fill="black"/>
<path d="M218.434 91.522H249.522L292.823 116.522H261.735L218.434 91.522Z" fill="black"/>
<path d="M312.219 1.74194H265.185L308.486 26.7419H355.52L312.219 1.74194Z" fill="black"/>
<path d="M287.161 26.1299H290.511L333.812 51.1299H330.462L287.161 26.1299Z" fill="black"/>
<path d="M282.069 57.4859L287.161 26.1299L330.462 51.1299L325.37 82.4859L282.069 57.4859Z" fill="black"/>
<path d="M245.353 91.522H275.905L319.206 116.522H288.654L245.353 91.522Z" fill="black"/>
<path d="M290.511 26.1299L295.335 57.4859L338.636 82.4859L333.812 51.1299L290.511 26.1299Z" fill="black"/>
<path d="M295.335 57.486H282.069L325.37 82.486H338.636L295.335 57.486Z" fill="black"/>
<path d="M275.905 91.522L278.049 81.204L321.35 106.204L319.206 116.522L275.905 91.522Z" fill="black"/>
<path d="M278.049 81.204H298.551L341.852 106.204H321.35L278.049 81.204Z" fill="black"/>
<path d="M332.453 91.5219L312.219 1.74194L355.52 26.7419L375.754 116.522L332.453 91.5219Z" fill="black"/>
<path d="M298.551 81.204L301.097 91.522L344.398 116.522L341.852 106.204L298.551 81.204Z" fill="black"/>
<path d="M301.097 91.522H332.453L375.754 116.522H344.398L301.097 91.522Z" fill="black"/>
<path d="M265.942 2.74194V26.0681H248.522V90.5222H219.434V26.0681H200.942V2.74194H265.942Z" fill="#FFF407" stroke="black" stroke-width="2"/>
<path d="M216.488 2.74194L211.391 26.0681H193.775V90.5222H164.688V26.0681H146.195V2.74194H216.488Z" fill="#FD9BFF" stroke="black" stroke-width="2"/>
<path d="M106.457 2.74194V60.5681C106.457 63.2845 107.11 65.4726 108.683 66.821L108.708 66.8425C110.318 68.1302 112.792 68.6697 115.9 68.6697C118.997 68.6696 121.45 68.1343 122.982 66.821C124.555 65.4726 125.207 63.2845 125.207 60.5681V2.74194H154.295V58.8259C154.295 71.3771 151.155 79.9446 145.149 84.8513C139.069 89.7286 129.343 92.2643 115.766 92.2644C102.272 92.2644 92.5836 89.7709 86.5023 84.9744C80.5097 80.2474 77.3695 71.8246 77.3695 59.3621V2.74194H106.457Z" fill="#FF7E08" stroke="black" stroke-width="2"/>
<path d="M42.7461 1C57.5206 1.00002 68.0463 4.6722 74.5703 11.7969L74.5742 11.8018C81.1114 18.8551 84.4922 30.3847 84.4922 46.6318C84.4922 62.8745 81.1138 74.4518 74.5742 81.5967C68.0509 88.6347 57.5237 92.2637 42.7461 92.2637C28.2938 92.2637 17.8634 88.7071 11.2305 81.7939L10.917 81.4619C4.3772 74.3162 1 62.7828 1 46.6318C1.00002 30.3849 4.3799 18.8551 10.917 11.8018L10.9219 11.7969C17.4459 4.67224 27.9716 1 42.7461 1ZM42.8799 24.1924C40.399 24.1924 38.257 24.6358 36.5068 25.5859C34.7414 26.5443 33.4315 27.988 32.5869 29.876L32.582 29.8867C31.0658 33.3929 30.3565 39.0201 30.3564 46.6318C30.3564 54.2469 31.0666 59.912 32.5781 63.502L32.5918 63.5312C33.4381 65.3733 34.7366 66.7802 36.4775 67.7139C38.2037 68.6395 40.3106 69.0723 42.7461 69.0723C45.2225 69.0723 47.3525 68.6408 49.0811 67.7139C50.8272 66.7775 52.1088 65.3638 52.9102 63.5107C54.4267 60.0036 55.1357 54.3308 55.1357 46.6318C55.1357 39.092 54.4712 33.5251 53.0459 30.0713L52.9062 29.7441C52.151 27.8992 50.9059 26.4883 49.1865 25.5527C47.4771 24.6228 45.3552 24.1924 42.8799 24.1924Z" fill="#FFF407" stroke="black" stroke-width="2"/>
<path d="M311.419 2.74194L331.203 90.5222H301.88L299.522 80.9646L299.334 80.2039H277.236L277.07 81.0007L275.091 90.5222H246.598L265.989 2.74194H311.419ZM286.174 25.9695L281.082 57.3259L280.893 58.4861H296.5L296.324 57.3337L291.5 25.9783L291.369 25.1296H286.31L286.174 25.9695Z" fill="#35CB75" stroke="black" stroke-width="2"/>
<path d="M356.576 13.522V2.82483H352.73V1.52197H361.856V2.82483H358.011V13.522H356.576Z" fill="black"/>
<path d="M363.683 13.522V1.52197H366.417L369.595 12.6134H369.818L372.996 1.52197H375.73V13.522H374.346V2.46483H374.107L370.946 13.522H368.468L365.306 2.46483H365.067V13.522H363.683Z" fill="black"/>
</svg>
